<svg width="27" height="24" fill="none" xmlns="http://www.w3.org/2000/svg"><path d="M23.991 23.352c-.96 0-1.674-.235-2.144-.704-.448-.49-.672-1.11-.672-1.856v-.64c0-.747.224-1.355.672-1.824.47-.49 1.184-.736 2.144-.736.96 0 1.664.245 2.112.736.47.47.704 1.077.704 1.824v.64c0 .747-.234 1.365-.704 1.856-.448.47-1.152.704-2.112.704Z" fill="#EA580C"/><path d="M.464.664H8.88c1.472 0 2.816.235 4.032.704a8.046 8.046 0 0 1 3.104 2.112c.853.917 1.515 2.08 1.984 3.488.47 1.387.704 3.008.704 4.864 0 1.856-.235 3.488-.704 4.896-.47 1.387-1.13 2.55-1.984 3.488a8.213 8.213 0 0 1-3.104 2.08c-1.216.47-2.56.704-4.032.704H.464V.664ZM8.88 18.68c1.45 0 2.592-.405 3.424-1.216.832-.81 1.248-2.112 1.248-3.904v-3.456c0-1.792-.416-3.093-1.248-3.904-.832-.81-1.973-1.216-3.424-1.216H5.328V18.68H8.88Z" fill="currentColor"/></svg>